<svg width="38" height="36" viewBox="0 0 38 36" fill="none" xmlns="http://www.w3.org/2000/svg">
<path d="M37.212 17.711L21.0162 1.47374L19.9306 0.384806C19.6832 0.138331 19.3487 0 19.0001 0C18.6514 0 18.3169 0.138331 18.0696 0.384806L0.788169 17.711C0.534716 17.9642 0.334407 18.2659 0.199068 18.598C0.0637278 18.9302 -0.00390069 19.2862 0.000173735 19.645C0.0169396 21.1249 1.24504 22.3064 2.72043 22.3064H4.50181V36H33.4983V22.3064H35.3174C36.0342 22.3064 36.709 22.0247 37.2162 21.516C37.4659 21.2663 37.6638 20.9694 37.7983 20.6424C37.9328 20.3155 38.0014 19.9651 38 19.6114C38 18.8966 37.7192 18.2197 37.212 17.711ZM21.3473 32.9729H16.6529V24.3959H21.3473V32.9729ZM30.4805 19.2792V32.9729H24.0298V23.3869C24.0298 22.4577 23.2796 21.7052 22.3532 21.7052H15.6469C14.7206 21.7052 13.9703 22.4577 13.9703 23.3869V32.9729H7.51966V19.2792H3.49585L19.0043 3.73569L19.9725 4.70689L34.5085 19.2792H30.4805Z" fill="#203F3C"/>
</svg>
